<svg width="414" height="420" viewBox="0 0 414 420" fill="none" xmlns="http://www.w3.org/2000/svg">
<g opacity="0.2" clip-path="url(#clip0)">
<path d="M90.2157 419.911C120.136 419.911 144.392 415.971 144.392 411.11C144.392 406.25 120.136 402.31 90.2157 402.31C60.295 402.31 36.0396 406.25 36.0396 411.11C36.0396 415.971 60.295 419.911 90.2157 419.911Z" fill="#E6E6E6"/>
<path d="M414 371.829L195.976 326.407V114.645L414 0.859131V371.829Z" fill="#E6E6E6"/>
<path d="M413.471 23.0965L195.447 127.448V115.174L413.471 1.5791V23.0965Z" fill="#CA4949"/>
<path d="M205.501 116.766C205.501 119.59 204.55 122.337 203.384 122.898C202.228 123.454 201.297 121.645 201.297 118.86C201.297 116.076 202.228 113.339 203.384 112.743C204.55 112.143 205.501 113.942 205.501 116.766Z" fill="#E6E6E6"/>
<path d="M213.968 112.539C213.968 115.285 213.017 117.967 211.851 118.525C210.695 119.078 209.763 117.328 209.763 114.62C209.763 111.911 210.695 109.24 211.851 108.649C213.017 108.054 213.968 109.793 213.968 112.539Z" fill="#E6E6E6"/>
<path d="M222.435 108.306C222.435 111.052 221.484 113.734 220.319 114.291C219.162 114.845 218.231 113.095 218.231 110.387C218.231 107.678 219.162 105.007 220.319 104.416C221.484 103.82 222.435 105.56 222.435 108.306Z" fill="#E6E6E6"/>
<path opacity="0.2" d="M357.398 165.998L222.986 196.747V157.531L357.398 110.011V165.998Z" fill="black"/>
<path d="M354.731 163.33L220.318 194.081V154.863L354.731 107.344V163.33Z" fill="white"/>
<path opacity="0.2" d="M245.203 169.747C245.203 176.065 242.813 181.799 239.911 182.541C237.059 183.271 234.783 178.89 234.783 172.767C234.783 166.644 237.059 160.943 239.911 160.02C242.813 159.08 245.203 163.429 245.203 169.747Z" fill="black"/>
<path d="M243.603 168.147C243.603 174.465 241.213 180.199 238.311 180.941C235.459 181.671 233.182 177.29 233.182 171.167C233.182 165.044 235.459 159.343 238.311 158.42C241.213 157.48 243.603 161.829 243.603 168.147Z" fill="#CA4949"/>
<path d="M322.451 145.738L257.891 164.38V157.782L322.451 137.93V145.738Z" fill="#E6E6E6"/>
<path d="M307.634 164.612L269.532 174.229V167.413L307.634 157.081V164.612Z" fill="#E6E6E6"/>
<path opacity="0.2" d="M357.402 306.231L222.99 294.964V216.27L357.402 193.83V306.231Z" fill="black"/>
<path d="M354.202 303.564L219.789 292.297V213.603L354.202 191.163V303.564Z" fill="white"/>
<path opacity="0.2" d="M242.024 235.837L235.733 236.423V229.547L242.024 228.828V235.837Z" fill="black"/>
<path d="M240.957 234.77L234.666 235.356V228.479L240.957 227.762V234.77Z" fill="#CA4949"/>
<path d="M322.451 227.013L247.307 234.046V227.647L322.451 219.205V227.013Z" fill="#E6E6E6"/>
<path d="M322.451 252.512L247.307 254.944V248.544L322.451 244.703V252.512Z" fill="#E6E6E6"/>
<path d="M322.451 278.654L247.307 276.369V269.969L322.451 270.845V278.654Z" fill="#E6E6E6"/>
<path d="M84.1142 194.036H69.7332V186.992H81.7662L84.4076 188.46L84.1142 194.036Z" fill="#575A89"/>
<path d="M59.1665 388.037L59.7538 398.603L68.5587 396.842L67.0913 386.276L59.1665 388.037Z" fill="#FFB9B9"/>
<path d="M100.843 382.46C100.843 382.46 101.136 391.265 100.256 393.613C99.3754 395.961 102.604 397.135 102.604 397.135H109.648L113.757 397.722V393.32C113.757 393.32 109.061 385.982 109.061 381.874C109.061 377.765 100.843 382.46 100.843 382.46Z" fill="#FFB9B9"/>
<path d="M60.634 396.842C60.634 396.842 66.5039 394.069 68.5584 395.749C70.6129 397.429 78.2438 411.81 75.3088 412.691C75.3088 412.691 73.2543 416.213 66.2104 413.865C59.1665 411.517 59.1665 408.875 59.1665 408.875C59.1665 408.875 57.1121 407.114 57.1121 406.527C57.1121 405.94 57.9926 400.657 57.9926 400.657C57.9926 400.657 58.6438 396.237 59.6389 396.54L60.634 396.842Z" fill="#2F2E41"/>
<path d="M101.43 392.439C101.43 392.439 100.55 391.559 99.9627 392.439C99.3757 393.32 96.1472 404.473 99.0822 405.06C102.017 405.647 106.42 407.701 107.007 407.114C107.497 406.491 107.893 405.798 108.181 405.06C108.181 405.06 112.876 407.114 114.344 408.875C115.811 410.636 133.421 414.451 132.834 408.875C132.247 403.299 123.442 398.603 123.442 398.603L113.757 392.146C113.757 392.146 109.942 392.439 109.061 394.2C108.181 395.961 102.017 395.668 101.43 392.439Z" fill="#2F2E41"/>
<path d="M15.4355 278.856C15.4355 278.856 12.207 282.965 12.794 283.258C13.381 283.552 26.2948 286.487 33.3387 284.726C40.3826 282.965 55.0574 283.258 55.9379 281.204C56.8184 279.149 67.6777 253.615 67.6777 253.615L64.1558 234.245L60.3403 229.255L51.5354 221.624L33.9257 254.496L15.4355 278.856Z" fill="#575A89"/>
<path opacity="0.1" d="M15.4355 278.856C15.4355 278.856 12.207 282.965 12.794 283.258C13.381 283.552 26.2948 286.487 33.3387 284.726C40.3826 282.965 55.0574 283.258 55.9379 281.204C56.8184 279.149 67.6777 253.615 67.6777 253.615L64.1558 234.245L60.3403 229.255L51.5354 221.624L33.9257 254.496L15.4355 278.856Z" fill="black"/>
<path d="M52.71 271.813C52.71 271.813 48.601 286.488 52.71 306.739C56.8189 326.99 53.0035 331.392 53.884 332.273C54.7645 333.153 55.0579 332.86 55.0579 333.74C55.0579 334.621 55.9384 338.73 55.0579 340.197C54.1774 341.665 54.1775 388.331 56.8189 389.505C59.4604 390.679 67.0913 393.614 68.5588 389.505C70.0262 385.396 68.8523 355.753 69.4392 354.285C70.0262 352.818 70.0262 349.296 70.0262 348.415C70.0262 347.535 71.7872 337.556 72.0807 334.914C72.3742 332.273 73.2547 326.99 73.2547 326.99C73.2547 326.99 72.6677 306.152 74.4287 299.988C76.1896 293.825 76.7766 293.238 76.7766 293.238L90.8644 329.925C90.8644 329.925 89.6905 333.74 90.8644 334.914C92.0384 336.088 90.571 335.795 91.7449 337.849C92.9189 339.904 94.0929 340.491 94.0929 341.665C94.0929 342.839 92.9189 342.839 93.5059 343.719C94.0929 344.6 94.9734 347.828 94.9734 347.828L93.5059 351.35C93.5059 351.35 94.3864 358.688 95.5604 363.09C96.7344 367.492 96.7344 385.396 98.2018 385.689C99.6693 385.983 111.116 389.211 111.116 382.461C111.116 375.71 110.235 346.361 110.235 346.361C110.235 346.361 108.474 341.958 108.474 340.784C108.474 339.61 108.181 339.023 108.768 338.436C109.355 337.849 109.942 336.675 109.061 335.795C108.181 334.914 108.474 333.74 108.474 332.566C108.423 330.986 108.227 329.414 107.887 327.871C107.594 326.697 102.017 290.01 102.017 290.01C102.017 290.01 103.191 285.607 102.017 285.314C100.843 285.02 100.843 282.672 100.843 281.498C100.843 280.324 103.778 265.649 100.256 265.649C96.7344 265.649 52.71 271.813 52.71 271.813Z" fill="#2F2E41"/>
<path d="M13.9684 254.203L9.85944 256.257C9.85944 256.257 -4.81535 264.182 1.64156 268.584C8.09847 272.986 14.5554 262.421 14.5554 262.421L20.7188 257.725L13.9684 254.203Z" fill="#FFB9B9"/>
<path d="M71.1996 173.785C71.1996 173.785 70.0257 187.286 63.8622 190.221C57.6988 193.156 61.8078 215.168 61.8078 215.168L70.3191 223.386L85.2874 218.983L87.0484 209.004L88.5159 198.732L84.9939 193.449C84.9939 193.449 80.5915 192.275 82.3525 180.535C84.1134 168.796 71.1996 173.785 71.1996 173.785Z" fill="#FFB9B9"/>
<path d="M62.3953 194.917C62.3953 194.917 69.1457 217.222 73.8417 217.222C78.5376 217.222 81.1791 211.939 81.766 205.482C82.353 199.026 86.1685 191.982 86.1685 191.982L95.2669 200.2C95.2669 200.2 102.604 265.062 102.017 266.823C101.43 268.584 78.5376 270.639 69.4392 273.28C60.3409 275.922 51.2425 273.867 51.2425 272.4C51.2425 271.093 55.8986 259.775 52.3556 251.509C51.0615 248.565 50.1865 245.454 49.7558 242.266C49.2075 237.915 48.6982 232.649 49.188 231.017C50.0685 228.082 54.7645 196.971 54.7645 196.971L62.3953 194.917Z" fill="#CA4949"/>
<path d="M67.3647 186.818C67.3647 186.818 62.1018 189.633 59.7539 190.807C57.4059 191.981 43.0246 195.503 42.7311 197.264C42.4376 199.025 44.7856 223.679 43.6116 226.32C42.4376 228.962 30.6978 252.441 30.6978 252.441L30.1108 257.431C30.1108 257.431 10.7401 280.617 13.088 283.258C15.436 285.9 24.2409 275.041 24.2409 275.041C24.2409 275.041 43.9051 243.636 44.4921 242.462C45.0791 241.288 57.1124 219.57 58.8734 218.983C60.6344 218.396 64.7433 193.742 65.3303 192.568C65.9173 191.394 68.2251 186.351 67.3647 186.818Z" fill="#575A89"/>
<path d="M44.1983 196.971H42.4373C42.4373 196.971 35.9804 221.625 34.2194 224.853C32.4584 228.081 32.1649 233.364 31.8714 234.245C31.578 235.125 30.404 234.832 30.1105 236.886C29.817 238.941 26.882 241.582 24.534 242.756C22.1861 243.93 11.6202 253.909 11.9137 254.203C12.2072 254.496 15.4357 264.768 17.4901 264.768C19.5446 264.768 27.7625 254.79 28.643 254.79C29.5235 254.79 33.3389 251.268 33.9259 250.974C34.5129 250.681 49.4812 223.092 48.8942 216.342C48.3072 209.591 44.1983 196.971 44.1983 196.971Z" fill="#575A89"/>
<path d="M117.43 273.007L121.045 275.842C121.045 275.842 133.839 286.541 126.632 289.563C119.425 292.585 115.211 280.942 115.211 280.942L110.111 275.108L117.43 273.007Z" fill="#FFB9B9"/>
<path d="M81.9941 187.167C81.9941 187.167 85.8748 189.047 87.6358 190.514C89.3968 191.982 102.898 195.797 102.898 196.971C102.898 198.145 101.43 216.342 101.43 216.342L103.485 248.626C103.485 248.626 106.42 285.02 107.007 285.9C107.594 286.781 108.474 291.477 107.007 291.477C105.539 291.477 98.2016 283.259 98.4951 279.15C98.7887 275.041 100.843 265.649 98.7886 263.301C96.7342 260.953 87.0488 221.625 87.0488 219.277C87.0488 216.929 82.9399 193.449 83.2334 192.862C83.5269 192.275 81.9941 187.167 81.9941 187.167Z" fill="#575A89"/>
<path d="M98.4955 196.677L102.898 196.971L113.757 241.289C113.757 241.289 114.638 246.865 114.931 247.452C115.225 248.039 119.627 273.573 117.866 274.454C116.105 275.334 110.235 278.563 109.942 276.508C109.648 274.454 106.713 263.007 103.778 260.366C100.843 257.724 97.9084 212.233 97.9084 212.233L98.4955 196.677Z" fill="#575A89"/>
<path d="M80.8854 181.709C87.5312 181.709 92.9187 176.322 92.9187 169.676C92.9187 163.03 87.5312 157.643 80.8854 157.643C74.2396 157.643 68.8521 163.03 68.8521 169.676C68.8521 176.322 74.2396 181.709 80.8854 181.709Z" fill="#FFB9B9"/>
<path d="M72.4877 170.555C73.2534 170.161 74.2608 170.532 74.9676 171.388C75.3414 169.598 76.1279 167.921 77.2642 166.489C78.4005 165.057 79.8554 163.91 81.5131 163.14C83.1707 162.369 84.9853 161.996 86.8126 162.05C88.6398 162.104 90.4291 162.584 92.0381 163.452V162.229C92.0381 159.533 90.9674 156.949 89.0616 155.043C87.1557 153.137 84.5708 152.066 81.8756 152.066H79.4329C76.9256 152.066 74.443 152.56 72.1266 153.519C69.8102 154.479 67.7055 155.885 65.9326 157.658C64.1597 159.431 62.7534 161.536 61.7939 163.852C60.8344 166.169 60.3406 168.651 60.3406 171.158V174.566C60.3403 177.728 61.216 180.829 62.8707 183.524C64.5253 186.219 66.8941 188.403 69.7144 189.833L80.704 184.015C79.1123 183.118 77.7517 181.862 76.7305 180.348C75.7092 178.833 75.0554 177.1 74.821 175.288C73.891 175.695 72.6456 175.037 71.9977 173.776C71.3311 172.478 71.5505 171.036 72.4877 170.555Z" fill="#2F2E41"/>
</g>
<defs>
<clipPath id="clip0">
<rect width="414" height="419.052" fill="white" transform="translate(0 0.859375)"/>
</clipPath>
</defs>
</svg>
